<?xml version="1.0" encoding="utf-8"?>
<!-- Generator: Adobe Illustrator 22.0.1, SVG Export Plug-In . SVG Version: 6.00 Build 0)  -->
<svg version="1.1" id="Layer_1" xmlns="http://www.w3.org/2000/svg" xmlns:xlink="http://www.w3.org/1999/xlink" x="0px" y="0px"
	 viewBox="0 0 45.1 45.1" style="enable-background:new 0 0 45.1 45.1;" xml:space="preserve">
<style type="text/css">
	.st0{fill:#FFFFFF;}
</style>
<path class="st0" d="M28.3,22.6L43.8,7c1.6-1.6,1.6-4.1,0-5.7s-4.1-1.6-5.7,0L22.6,16.9L7,1.4c-1.6-1.6-4.1-1.6-5.7,0
	s-1.6,4.1,0,5.7l15.6,15.5L1.4,38.2c-1.6,1.6-1.6,4.1,0,5.7s4.1,1.6,5.7,0l15.5-15.6l15.6,15.5c1.6,1.6,4.1,1.6,5.7,0s1.6-4.1,0-5.7
	L28.3,22.6z"/>
</svg>
