<?xml version="1.0" encoding="utf-8"?>
<!-- Generator: Adobe Illustrator 22.0.1, SVG Export Plug-In . SVG Version: 6.00 Build 0)  -->
<svg version="1.1" id="Layer_1" xmlns="http://www.w3.org/2000/svg" xmlns:xlink="http://www.w3.org/1999/xlink" x="0px" y="0px"
	 viewBox="0 0 34.2 34.2" style="enable-background:new 0 0 34.2 34.2;" xml:space="preserve">
<style type="text/css">
	.st0{fill:none;}
	.st1{fill:#FFFFFF;}
</style>
<g>
	<path class="st0" d="M18.5,19v4.8c1.9-0.3,2.7-1.4,2.7-2.4C21.2,20.1,20.1,19.4,18.5,19z"/>
	<path class="st0" d="M13.6,12.9c0,1.1,1.1,1.6,2.6,2v-4.4C14.5,10.8,13.6,11.6,13.6,12.9z"/>
	<path class="st0" d="M17.1,1.5c-8.6,0-15.6,7-15.6,15.6c0,8.6,7,15.6,15.6,15.6s15.6-7,15.6-15.6C32.7,8.5,25.7,1.5,17.1,1.5z
		 M18.5,26.6v2.4h-2.3v-2.4c-3-0.3-5.2-1.2-6.7-2.9l1.9-2.4c1.1,1.1,2.7,2,4.8,2.3v-5.3c-3-0.7-6.1-1.8-6.1-5.3c0-2.9,2.5-5,6.1-5.3
		V5.1h2.3v2.6c2.3,0.3,4.2,1.1,5.7,2.4l-1.9,2.4c-1.1-1-2.4-1.6-3.8-1.9v4.8c3,0.8,6.3,1.9,6.3,5.6C24.7,23.8,22.8,26.2,18.5,26.6z"
		/>
	<path class="st1" d="M18.5,15.5v-4.8c1.4,0.3,2.7,1,3.8,1.9l1.9-2.4c-1.5-1.4-3.4-2.2-5.7-2.4V5.1h-2.3v2.6C12.5,8,10,10.2,10,13
		c0,3.5,3.1,4.6,6.1,5.3v5.3c-2-0.3-3.7-1.2-4.8-2.3l-1.9,2.4c1.5,1.6,3.7,2.6,6.7,2.9v2.4h2.3v-2.4c4.4-0.4,6.3-2.9,6.3-5.6
		C24.7,17.4,21.4,16.3,18.5,15.5z M16.1,14.9c-1.5-0.4-2.6-1-2.6-2c0-1.2,1-2,2.6-2.3V14.9z M18.5,23.8V19c1.6,0.4,2.7,1.1,2.7,2.3
		C21.2,22.4,20.4,23.5,18.5,23.8z"/>
	<path class="st1" d="M34.2,17.1C34.2,7.7,26.5,0,17.1,0h0C7.7,0,0,7.7,0,17.1c0,9.4,7.7,17.1,17.1,17.1S34.2,26.5,34.2,17.1z
		 M17.1,32.7c-8.6,0-15.6-7-15.6-15.6c0-8.6,7-15.6,15.6-15.6s15.6,7,15.6,15.6C32.7,25.7,25.7,32.7,17.1,32.7z"/>
</g>
</svg>
