<?xml version="1.0" encoding="utf-8"?>
<!-- Generator: Adobe Illustrator 22.0.1, SVG Export Plug-In . SVG Version: 6.00 Build 0)  -->
<svg version="1.1" id="Layer_1" xmlns="http://www.w3.org/2000/svg" xmlns:xlink="http://www.w3.org/1999/xlink" x="0px" y="0px"
	 viewBox="0 0 39.8 39.6" style="enable-background:new 0 0 39.8 39.6;" xml:space="preserve">
<style type="text/css">
	.st0{fill:#FFFFFF;}
</style>
<g>
	<g>
		<path class="st0" d="M38.1,18.2h-0.2H32h-0.3c-0.9,0.1-1.6,0.8-1.6,1.7c0,1,0.8,1.7,1.7,1.8h6.3c0.9-0.1,1.6-0.8,1.6-1.8
			C39.7,19,39,18.2,38.1,18.2z M29.6,12.7L29.6,12.7l4.2-4.2L34,8.3c0.6-0.7,0.5-1.7-0.1-2.4c-0.7-0.7-1.7-0.7-2.4-0.1L31.3,6
			l-4.1,4.2L27,10.4c-0.6,0.7-0.6,1.7,0.1,2.4C27.8,13.4,28.9,13.4,29.6,12.7z M19.9,0.1c-0.9,0-1.7,0.7-1.8,1.6v0.2v5.9v0.3
			c0.1,0.9,0.8,1.6,1.7,1.6c1,0,1.8-0.8,1.8-1.7l0,0V2.1V1.7C21.6,0.8,20.8,0.1,19.9,0.1z M12.7,10.3L8.5,6.1L8.3,5.9
			c-0.7-0.7-1.8-0.6-2.4,0C5.2,6.6,5.2,7.6,5.8,8.3L6,8.5l4.2,4.1l0.2,0.2c0.7,0.6,1.7,0.6,2.4-0.1C13.4,12.1,13.4,10.9,12.7,10.3
			L12.7,10.3z M8.1,21.7C9,21.6,9.7,20.9,9.7,20c0-1-0.8-1.7-1.8-1.8H1.7C0.8,18.3,0.1,19,0.1,20c0,0.9,0.7,1.7,1.7,1.8H2h5.9
			L8.1,21.7L8.1,21.7z M10.2,27.1L10.2,27.1L6,31.3l-0.2,0.2c-0.6,0.7-0.5,1.7,0.1,2.4c0.7,0.7,1.7,0.7,2.4,0.1l0.2-0.2l4.1-4.2
			l0.2-0.2c0.6-0.7,0.6-1.7-0.1-2.4C12,26.5,10.9,26.5,10.2,27.1z M21.6,31.7c-0.1-0.9-0.8-1.6-1.7-1.6c-1,0-1.8,0.8-1.8,1.7l0,0
			v5.9V38c0.1,0.9,0.8,1.6,1.8,1.6c0.9,0,1.7-0.7,1.8-1.6v-0.2v-5.9L21.6,31.7L21.6,31.7z M33.8,31.4l-4.2-4.1l-0.2-0.2
			c-0.7-0.6-1.7-0.6-2.4,0.1c-0.7,0.7-0.7,1.8,0,2.5l0,0l4.2,4.2l0.2,0.2c0.7,0.6,1.7,0.5,2.4-0.1c0.7-0.7,0.7-1.7,0.1-2.4
			L33.8,31.4z"/>
	</g>
</g>
</svg>
