<?xml version="1.0" encoding="utf-8"?>
<!-- Generator: Adobe Illustrator 22.0.1, SVG Export Plug-In . SVG Version: 6.00 Build 0)  -->
<svg version="1.1" id="Layer_1" xmlns="http://www.w3.org/2000/svg" xmlns:xlink="http://www.w3.org/1999/xlink" x="0px" y="0px"
	 viewBox="0 0 26.6 29" style="enable-background:new 0 0 26.6 29;" xml:space="preserve">
<style type="text/css">
	.st0{fill:#FFFFFF;}
</style>
<g>
	<path class="st0" d="M26.1,20.5L16,4.4c-0.6-0.9-1.6-1.5-2.7-1.5s-2.1,0.6-2.7,1.5L0.5,20.5v0c-0.3,0.5-0.4,1-0.4,1.6
		c0,1.7,1.4,3.1,3.1,3.1h20.1c1.7,0,3.1-1.4,3.1-3.1C26.5,21.5,26.4,21,26.1,20.5z M23.4,23.4H3.3c-0.7,0-1.3-0.6-1.3-1.3
		c0-0.2,0.1-0.4,0.2-0.6l10.1-16c0.2-0.4,0.6-0.6,1.1-0.6c0.5,0,0.9,0.2,1.1,0.6l10.1,16c0.1,0.2,0.2,0.4,0.2,0.6
		C24.7,22.8,24.1,23.4,23.4,23.4z"/>
	<path class="st0" d="M13.3,19.2c-0.4,0-0.6,0.1-0.9,0.4c-0.2,0.2-0.4,0.6-0.4,0.9c0,0.4,0.1,0.7,0.4,0.9c0.2,0.2,0.6,0.3,0.9,0.3
		s0.6-0.1,0.9-0.3c0.2-0.2,0.4-0.5,0.4-0.9c0-0.3-0.1-0.6-0.4-0.9C14,19.3,13.7,19.2,13.3,19.2z"/>
	<path class="st0" d="M13.4,8.9c-0.4,0-0.7,0.1-1,0.4C12.2,9.6,12,9.9,12,10.4c0,0.3,0,0.9,0.1,1.7l0.3,4.1c0.1,0.5,0.1,0.9,0.2,1.2
		c0.1,0.2,0.3,0.4,0.6,0.4c0.3,0,0.5-0.1,0.6-0.4c0.1-0.3,0.2-0.6,0.2-1.1l0.4-4.2c0-0.4,0.1-0.8,0.1-1.1c0-0.6-0.1-1.1-0.2-1.4
		C14.2,9.1,13.9,8.9,13.4,8.9z"/>
</g>
</svg>
